<mxfile host="65bd71144e">
    <diagram id="309gLGTTeJihRaDpzYbE" name="第 1 页">
        <mxGraphModel dx="1374" dy="790" grid="1" gridSize="10" guides="1" tooltips="1" connect="1" arrows="1" fold="1" page="1" pageScale="1" pageWidth="827" pageHeight="1169" math="0" shadow="0">
            <root>
                <mxCell id="0"/>
                <mxCell id="1" parent="0"/>
                <mxCell id="2" value="TCP/IP 协议栈" style="rounded=0;whiteSpace=wrap;html=1;fillColor=#f5f5f5;fontColor=#333333;strokeColor=#666666;fontSize=16;" vertex="1" parent="1">
                    <mxGeometry x="160" y="460" width="640" height="60" as="geometry"/>
                </mxCell>
                <mxCell id="3" value="netfilter hook API&lt;br style=&quot;font-size: 14px;&quot;&gt;(nf_register_hook)" style="rounded=0;whiteSpace=wrap;html=1;fontSize=14;" vertex="1" parent="1">
                    <mxGeometry x="160" y="390" width="640" height="60" as="geometry"/>
                </mxCell>
                <mxCell id="4" value="x_tables&lt;br style=&quot;font-size: 14px;&quot;&gt;(xt_register_table, xt_hook_link, xt_register_match, xt_register_target)" style="rounded=0;whiteSpace=wrap;html=1;fontSize=14;" vertex="1" parent="1">
                    <mxGeometry x="160" y="320" width="640" height="60" as="geometry"/>
                </mxCell>
                <mxCell id="5" value="&lt;b&gt;ebtables&lt;/b&gt;&lt;br&gt;(ebt_register_table,&lt;br&gt;ebt_do_table,&lt;br&gt;filter, broute, nat)" style="rounded=0;whiteSpace=wrap;html=1;verticalAlign=top;fontSize=14;" vertex="1" parent="1">
                    <mxGeometry x="160" y="230" width="180" height="80" as="geometry"/>
                </mxCell>
                <mxCell id="6" value="&lt;b style=&quot;font-size: 14px;&quot;&gt;arptables&lt;/b&gt;&lt;br style=&quot;font-size: 14px;&quot;&gt;(arpt_do_table,&lt;br style=&quot;font-size: 14px;&quot;&gt;filter)" style="rounded=0;whiteSpace=wrap;html=1;verticalAlign=top;fontSize=14;" vertex="1" parent="1">
                    <mxGeometry x="350" y="230" width="150" height="80" as="geometry"/>
                </mxCell>
                <mxCell id="7" value="ip6tables&lt;br&gt;&lt;span style=&quot;font-weight: normal&quot;&gt;(...)&lt;/span&gt;" style="rounded=0;whiteSpace=wrap;html=1;fontStyle=1;verticalAlign=top;fontSize=14;" vertex="1" parent="1">
                    <mxGeometry x="510" y="230" width="120" height="80" as="geometry"/>
                </mxCell>
                <mxCell id="8" value="&lt;b style=&quot;font-size: 14px;&quot;&gt;iptables&lt;/b&gt;&lt;br style=&quot;font-size: 14px;&quot;&gt;(ipt_do_table,&lt;br style=&quot;font-size: 14px;&quot;&gt;filter, raw, nat, mangle)" style="rounded=0;whiteSpace=wrap;html=1;verticalAlign=top;fontSize=14;" vertex="1" parent="1">
                    <mxGeometry x="640" y="230" width="160" height="80" as="geometry"/>
                </mxCell>
                <mxCell id="9" value="ebtables tools" style="rounded=0;whiteSpace=wrap;html=1;fontSize=14;" vertex="1" parent="1">
                    <mxGeometry x="160" y="180" width="180" height="40" as="geometry"/>
                </mxCell>
                <mxCell id="10" value="" style="shape=curlyBracket;whiteSpace=wrap;html=1;rounded=1;" vertex="1" parent="1">
                    <mxGeometry x="130" y="230" width="20" height="290" as="geometry"/>
                </mxCell>
                <mxCell id="12" value="arptables tools" style="rounded=0;whiteSpace=wrap;html=1;fontSize=14;" vertex="1" parent="1">
                    <mxGeometry x="350" y="180" width="150" height="40" as="geometry"/>
                </mxCell>
                <mxCell id="13" value="ip6tables tools" style="rounded=0;whiteSpace=wrap;html=1;fontSize=14;" vertex="1" parent="1">
                    <mxGeometry x="510" y="180" width="120" height="40" as="geometry"/>
                </mxCell>
                <mxCell id="14" value="iptables tools" style="rounded=0;whiteSpace=wrap;html=1;fontSize=14;" vertex="1" parent="1">
                    <mxGeometry x="640" y="180" width="160" height="40" as="geometry"/>
                </mxCell>
                <mxCell id="16" value="Kernel &lt;br style=&quot;font-size: 14px;&quot;&gt;Space" style="text;html=1;strokeColor=none;fillColor=none;align=center;verticalAlign=middle;whiteSpace=wrap;rounded=0;fontSize=14;fontStyle=1" vertex="1" parent="1">
                    <mxGeometry x="80" y="350" width="50" height="50" as="geometry"/>
                </mxCell>
                <mxCell id="17" value="User&lt;br style=&quot;font-size: 14px;&quot;&gt;Space" style="text;html=1;strokeColor=none;fillColor=none;align=center;verticalAlign=middle;whiteSpace=wrap;rounded=0;fontSize=14;fontStyle=1" vertex="1" parent="1">
                    <mxGeometry x="80" y="175" width="50" height="50" as="geometry"/>
                </mxCell>
                <mxCell id="18" value="" style="shape=curlyBracket;whiteSpace=wrap;html=1;rounded=1;" vertex="1" parent="1">
                    <mxGeometry x="130" y="180" width="20" height="40" as="geometry"/>
                </mxCell>
            </root>
        </mxGraphModel>
    </diagram>
</mxfile>